<?xml version="1.0" encoding="UTF-8"?>
<svg width="179px" height="35px" viewBox="0 0 179 35" version="1.1" xmlns="http://www.w3.org/2000/svg" xmlns:xlink="http://www.w3.org/1999/xlink">
    <title>monnom-logo-beyaz@3x</title>
    <defs>
        <polygon id="path-1" points="0 0.0367765568 36.4360521 0.0367765568 36.4360521 33.3320147 0 33.3320147"></polygon>
        <polygon id="path-3" points="0.0546116321 0.0621245421 35.0732041 0.0621245421 35.0732041 34.2857045 0.0546116321 34.2857045"></polygon>
        <polygon id="path-5" points="0.0377461308 0.0367765568 36.4737573 0.0367765568 36.4737573 33.3320147 0.0377461308 33.3320147"></polygon>
    </defs>
    <g id="design" stroke="none" stroke-width="1" fill="none" fill-rule="evenodd">
        <g id="m-home" transform="translate(-250.000000, -28.000000)">
            <g id="monnom-logo-beyaz" transform="translate(250.000000, 28.000000)">
                <polygon id="Fill-1" fill="#FFFFFF" points="24.6011739 28 24.5416744 18.4299624 20.0179592 26.1100292 16.9226445 26.1100292 12.3988261 18.7599637 12.3988261 28 6 28 6 7 11.7738235 7 18.5595511 18.1899981 25.1665739 7 30.9405005 7 31 28"></polygon>
                <g id="Group-29">
                    <path d="M50.2488273,21.2501392 C50.9191279,20.8337289 51.4529731,20.242862 51.8496756,19.4772454 C52.2463781,18.7120195 52.4445821,17.816 52.4445821,16.7887961 C52.4445821,15.7619829 52.2463781,14.8660611 51.8496756,14.1003468 C51.4529731,13.3351209 50.9191279,12.7443516 50.2488273,12.327453 C49.5781341,11.9110427 48.8273346,11.7025934 47.9963307,11.7025934 C47.1649341,11.7025934 46.4140364,11.9110427 45.7437358,12.327453 C45.0730425,12.7443516 44.5396882,13.3351209 44.1429857,14.1003468 C43.7462832,14.8660611 43.5479811,15.7619829 43.5479811,16.7887961 C43.5479811,17.816 43.7462832,18.7120195 44.1429857,19.4772454 C44.5396882,20.242862 45.0730425,20.8337289 45.7437358,21.2501392 C46.4140364,21.6670379 47.1649341,21.8749988 47.9963307,21.8749988 C48.8273346,21.8749988 49.5781341,21.6670379 50.2488273,21.2501392 M42.2446842,26.0602979 C40.5445867,25.1497241 39.2130171,23.8854505 38.2496809,22.2673797 C37.2862465,20.6497973 36.8046274,18.8232772 36.8046274,16.7887961 C36.8046274,14.754315 37.2862465,12.9282833 38.2496809,11.3102125 C39.2130171,9.69263004 40.5445867,8.42835653 42.2446842,7.51739194 C43.9446836,6.60681807 45.8616373,6.15133578 47.9963307,6.15133578 C50.1306314,6.15133578 52.0479778,6.60681807 53.7480753,7.51739194 C55.4479764,8.42835653 56.7796442,9.69263004 57.7430786,11.3102125 C58.7063167,12.9282833 59.1880339,14.754315 59.1880339,16.7887961 C59.1880339,18.8232772 58.7063167,20.6497973 57.7430786,22.2673797 C56.7796442,23.8854505 55.4479764,25.1497241 53.7480753,26.0602979 C52.0479778,26.9707741 50.1306314,27.4262564 47.9963307,27.4262564 C45.8616373,27.4262564 43.9446836,26.9707741 42.2446842,26.0602979" id="Fill-2" fill="#FFFFFF"></path>
                    <polygon id="Fill-4" fill="#FFFFFF" points="85.4245301 6.61635165 85.4245301 26.9612601 79.9278295 26.9612601 72.3910709 17.7188669 72.3910709 26.9612601 65.8744885 26.9612601 65.8744885 6.61635165 71.3711891 6.61635165 78.9077514 15.8587448 78.9077514 6.61635165"></polygon>
                    <polygon id="Fill-6" fill="#FFFFFF" points="112.454088 6.61635165 112.454088 26.9612601 106.957485 26.9612601 99.4207266 17.7188669 99.4207266 26.9612601 92.9040461 26.9612601 92.9040461 6.61635165 98.4007467 6.61635165 105.937505 15.8587448 105.937505 6.61635165"></polygon>
                    <path d="M132.584565,21.2501392 C133.254866,20.8337289 133.788809,20.242862 134.185512,19.4772454 C134.582116,18.7120195 134.780418,17.816 134.780418,16.7887961 C134.780418,15.7619829 134.582116,14.8660611 134.185512,14.1003468 C133.788809,13.3351209 133.254866,12.7443516 132.584565,12.327453 C131.913872,11.9110427 131.163073,11.7025934 130.332167,11.7025934 C129.500672,11.7025934 128.749775,11.9110427 128.079572,12.327453 C127.408879,12.7443516 126.875426,13.3351209 126.478822,14.1003468 C126.08212,14.8660611 125.883719,15.7619829 125.883719,16.7887961 C125.883719,17.816 126.08212,18.7120195 126.478822,19.4772454 C126.875426,20.242862 127.408879,20.8337289 128.079572,21.2501392 C128.749775,21.6670379 129.500672,21.8749988 130.332167,21.8749988 C131.163073,21.8749988 131.913872,21.6670379 132.584565,21.2501392 M124.580521,26.0602979 C122.880325,25.1497241 121.548755,23.8854505 120.585419,22.2673797 C119.622083,20.6497973 119.140464,18.8232772 119.140464,16.7887961 C119.140464,14.754315 119.622083,12.9282833 120.585419,11.3102125 C121.548755,9.69263004 122.880325,8.42835653 124.580521,7.51739194 C126.280422,6.60681807 128.197474,6.15133578 130.332167,6.15133578 C132.466468,6.15133578 134.383814,6.60681807 136.083813,7.51739194 C137.783813,8.42835653 139.115481,9.69263004 140.078817,11.3102125 C141.042055,12.9282833 141.52387,14.754315 141.52387,16.7887961 C141.52387,18.8232772 141.042055,20.6497973 140.078817,22.2673797 C139.115481,23.8854505 137.783813,25.1497241 136.083813,26.0602979 C134.383814,26.9707741 132.466468,27.4262564 130.332167,27.4262564 C128.197474,27.4262564 126.280422,26.9707741 124.580521,26.0602979" id="Fill-8" fill="#FFFFFF"></path>
                    <polygon id="Fill-10" fill="#FFFFFF" points="165.91864 26.9612308 165.861996 17.6897289 161.555305 25.1302173 158.608653 25.1302173 154.301961 18.0094359 154.301961 26.9612308 148.210256 26.9612308 148.210256 6.61632234 153.706859 6.61632234 160.166895 17.4572503 166.457001 6.61632234 171.953701 6.61632234 172.010345 26.9612308"></polygon>
                    <g id="Group-28">
                        <g id="Group-14" transform="translate(0.000000, 0.488400)">
                            <mask id="mask-2" fill="white">
                                <use xlink:href="#path-1"></use>
                            </mask>
                            <g id="Clip-13"></g>
                            <path d="M16.624466,31.0582173 L19.8115353,31.0582173 L19.8771125,31.1255189 C20.9857394,32.2628083 22.459262,32.8890354 24.0260454,32.8890354 L30.1175543,32.8890354 C31.6657838,32.8890354 33.1803411,32.2440537 34.2725738,31.1192674 C35.3846366,29.9744567 35.9947594,28.4550427 35.9907542,26.8408791 L35.9339925,6.49460317 C35.9239793,3.17807082 33.2893092,0.47985348 30.0609106,0.47985348 L24.5657807,0.47985348 C22.5075613,0.47985348 20.5747042,1.60766789 19.5215429,3.42334554 L18.207742,5.68551893 L16.8253206,3.36297924 C15.7634223,1.58471306 13.8437199,0.47985348 11.8156384,0.47985348 L6.31834888,0.47985348 C3.07983885,0.47985348 0.445168737,3.18549451 0.445168737,6.51130647 L0.445168737,26.8575824 C0.445168737,30.1832967 3.07983885,32.8890354 6.31834888,32.8890354 L12.4098578,32.8890354 C13.9767394,32.8890354 15.450262,32.2628083 16.5588889,31.1255189 L16.624466,31.0582173 Z M30.1175543,33.3320147 L24.0260454,33.3320147 C22.3690443,33.3320147 20.8094272,32.6825397 19.6240318,31.5011966 L16.8119696,31.5011966 C15.6265742,32.6825397 14.0670552,33.3320147 12.4098578,33.3320147 L6.31834888,33.3320147 C2.8343172,33.3320147 -2.94508173e-05,30.4275946 -2.94508173e-05,26.8575824 L-2.94508173e-05,6.51130647 C-2.94508173e-05,2.94119658 2.8343172,0.0367765568 6.31834888,0.0367765568 L11.8156384,0.0367765568 C14.0000055,0.0367765568 16.0662749,1.2247619 17.2081812,3.13704518 L18.2029317,4.80825397 L19.1360317,3.20180708 C20.2684157,1.24957265 22.3490177,0.0367765568 24.5657807,0.0367765568 L30.0609106,0.0367765568 C33.5340455,0.0367765568 36.3683921,2.93318681 36.3791907,6.49333333 L36.4360521,26.839707 C36.4403503,28.5698168 35.7857568,30.1990232 34.5928023,31.4271551 C33.4170275,32.6377045 31.7858449,33.3320147 30.1175543,33.3320147 L30.1175543,33.3320147 Z" id="Fill-12" fill-opacity="0.4" fill="#FFFFFF" mask="url(#mask-2)"></path>
                        </g>
                        <g id="Group-17" transform="translate(30.432511, 0.000000)">
                            <mask id="mask-4" fill="white">
                                <use xlink:href="#path-3"></use>
                            </mask>
                            <g id="Clip-16"></g>
                            <path d="M17.562828,0.505094017 C14.4854139,0.505094017 11.6356547,1.19549695 9.09267477,2.55715751 C6.44337742,3.97762149 4.32890691,5.99295726 2.80796854,8.54709646 C1.27642787,11.1194042 0.49980982,14.0214799 0.49980982,17.1728352 C0.49980982,20.3266325 1.27574069,23.227243 2.80580881,25.7941783 C4.32488197,28.3523223 6.44072685,30.3697094 9.09473633,31.7905641 C11.6377162,33.1523223 14.4866901,33.8427253 17.562828,33.8427253 C20.6404384,33.8427253 23.4887251,33.1530061 26.0287599,31.7928107 C28.6784499,30.3752772 30.7951783,28.3592576 32.3199453,25.8006252 C33.851486,23.2283175 34.6280059,20.325558 34.6280059,17.1728352 C34.6280059,14.0215775 33.851486,11.1195018 32.3198472,8.54709646 C30.7969454,5.9922735 28.6816895,3.97625397 26.0327849,2.55491087 C23.4908848,1.19481319 20.6410274,0.505094017 17.562828,0.505094017 M17.562828,34.2857045 C14.4122777,34.2857045 11.4922292,33.5775238 8.88386848,32.1806984 C6.15731181,30.7210647 3.98344882,28.6481954 2.42265368,26.0198193 C0.851452578,23.3839219 0.0546116321,20.4072186 0.0546116321,17.1728352 C0.0546116321,13.9409915 0.852139763,10.9629206 2.42491157,8.32135775 C3.98776828,5.69688889 6.16006056,3.62636386 8.88161058,2.16721856 C11.4902658,0.770295482 14.4110015,0.0621147741 17.562828,0.0621147741 C20.7154398,0.0621147741 23.6361755,0.769611722 26.2439472,2.16497192 C28.9650064,3.62499634 31.138084,5.69620513 32.7029041,8.32126007 C34.2757741,10.9630183 35.0732041,13.9410891 35.0732041,17.1728352 C35.0732041,20.4060464 34.2757741,23.384801 32.7030023,26.0264615 C31.136317,28.6554237 28.9616686,30.7267302 26.2396278,32.1828474 C23.6342121,33.5782076 20.7148508,34.2857045 17.562828,34.2857045" id="Fill-15" fill-opacity="0.4" fill="#FFFFFF" mask="url(#mask-4)"></path>
                        </g>
                        <path d="M76.1600785,31.9739194 L76.3003625,32.0872283 C77.331043,32.9192674 78.6198107,33.3774847 79.9292922,33.3774847 L85.4245202,33.3774847 C88.6629321,33.3774847 91.2976022,30.671746 91.2976022,27.3460317 L91.2976022,6.99965812 C91.2976022,3.67394383 88.6629321,0.968205128 85.4245202,0.968205128 L78.9087233,0.968205128 C77.577939,0.968205128 76.3231378,1.41362637 75.2798917,2.25631258 L75.139804,2.36942613 L74.9996181,2.25650794 C73.967956,1.42573871 72.6797772,0.968205128 71.3725536,0.968205128 L65.8751659,0.968205128 C62.636754,0.968205128 60.0020839,3.67394383 60.0020839,6.99965812 L60.0020839,27.3460317 C60.0020839,30.671746 62.636754,33.3774847 65.8751659,33.3774847 L72.3909629,33.3774847 C73.7200783,33.3774847 74.9748794,32.9312821 76.0197944,32.0872283 L76.1600785,31.9739194 Z M85.4245202,33.820464 L79.9292922,33.820464 C78.5769107,33.820464 77.2455374,33.3674237 76.1602748,32.5412454 C75.0637227,33.3787546 73.7643527,33.820464 72.3909629,33.820464 L65.8751659,33.820464 C62.3912324,33.820464 59.5568857,30.9159463 59.5568857,27.3460317 L59.5568857,6.99965812 C59.5568857,3.42964591 62.3912324,0.525225885 65.8751659,0.525225885 L71.3725536,0.525225885 C72.7226773,0.525225885 74.0532652,0.977582418 75.1394113,1.80239316 C76.2342945,0.966251526 77.5336646,0.525225885 78.9087233,0.525225885 L85.4245202,0.525225885 C88.9084538,0.525225885 91.7428004,3.42964591 91.7428004,6.99965812 L91.7428004,27.3460317 C91.7428004,30.9159463 88.9084538,33.820464 85.4245202,33.820464 L85.4245202,33.820464 Z" id="Fill-18" fill-opacity="0.4" fill="#FFFFFF"></path>
                        <path d="M103.18888,31.9739194 L103.329164,32.0872283 C104.359845,32.9192674 105.648612,33.3774847 106.958094,33.3774847 L112.453224,33.3774847 C115.691734,33.3774847 118.326404,30.671746 118.326404,27.3460317 L118.326404,6.99965812 C118.326404,3.67394383 115.691734,0.968205128 112.453224,0.968205128 L105.937525,0.968205128 C104.606643,0.968205128 103.351841,1.41362637 102.308595,2.25631258 L102.168508,2.36942613 L102.028322,2.25650794 C100.996659,1.42573871 99.7085789,0.968205128 98.4012571,0.968205128 L92.9039676,0.968205128 C89.6655557,0.968205128 87.0308856,3.67394383 87.0308856,6.99965812 L87.0308856,27.3460317 C87.0308856,30.671746 89.6655557,33.3774847 92.9039676,33.3774847 L99.4196664,33.3774847 C100.74888,33.3774847 102.003681,32.9312821 103.048596,32.0872283 L103.18888,31.9739194 Z M112.453224,33.820464 L106.958094,33.820464 C105.605712,33.820464 104.274339,33.3674237 103.189077,32.5412454 C102.092524,33.3787546 100.793154,33.820464 99.4196664,33.820464 L92.9039676,33.820464 C89.4200341,33.820464 86.5856874,30.9159463 86.5856874,27.3460317 L86.5856874,6.99965812 C86.5856874,3.42964591 89.4200341,0.525225885 92.9039676,0.525225885 L98.4012571,0.525225885 C99.7513808,0.525225885 101.081969,0.977582418 102.168115,1.80239316 C103.262998,0.966251526 104.562466,0.525225885 105.937525,0.525225885 L112.453224,0.525225885 C115.937157,0.525225885 118.771602,3.42964591 118.771602,6.99965812 L118.771602,27.3460317 C118.771602,30.9159463 115.937157,33.820464 112.453224,33.820464 L112.453224,33.820464 Z" id="Fill-20" fill-opacity="0.4" fill="#FFFFFF"></path>
                        <g id="Group-24" transform="translate(112.796630, 0.000000)" fill="#FFFFFF" fill-opacity="0.4">
                            <path d="M17.5343589,0.505094017 C14.4569448,0.505094017 11.6071855,1.19549695 9.06420565,2.55715751 C6.41186505,3.97928205 4.29739454,5.99452015 2.77949941,8.54699878 C1.24795875,11.1194042 0.471340696,14.0214799 0.471340696,17.1728352 C0.471340696,20.3266325 1.24727156,23.227243 2.77733969,25.7941783 C4.29641284,28.35242 6.41235589,30.3698071 9.0662672,31.7905641 C11.6092471,33.1523223 14.458221,33.8427253 17.5343589,33.8427253 C20.6119693,33.8427253 23.460256,33.1530061 26.0002908,31.7928107 C28.6499808,30.3752772 30.7667092,28.3592576 32.2914762,25.8006252 C33.8230169,23.2283175 34.5995368,20.325558 34.5995368,17.1728352 C34.5995368,14.0215775 33.8230169,11.1195018 32.291378,8.54709646 C30.7684763,5.9922735 28.6532204,3.97625397 26.0043157,2.55491087 C23.4624157,1.19481319 20.6125583,0.505094017 17.5343589,0.505094017 M17.5343589,34.2857045 C14.3838086,34.2857045 11.4637601,33.5775238 8.85539935,32.1806984 C6.12884269,30.7210647 3.95507787,28.648293 2.39418456,26.0198193 C0.822983454,23.3839219 0.0261425088,20.4072186 0.0261425088,17.1728352 C0.0261425088,13.9409915 0.823572471,10.9629206 2.39644245,8.32135775 C3.95615773,5.69864713 6.12835184,3.62802442 8.85314146,2.16721856 C11.4617967,0.770295482 14.3825324,0.0621147741 17.5343589,0.0621147741 C20.6869707,0.0621147741 23.6077064,0.769611722 26.2154781,2.16497192 C28.9365373,3.62499634 31.1096149,5.69620513 32.674435,8.32126007 C34.2472068,10.9630183 35.0447349,13.9410891 35.0447349,17.1728352 C35.0447349,20.4060464 34.2472068,23.384801 32.6745332,26.0264615 C31.1078479,28.6554237 28.9331995,30.7267302 26.2112568,32.1828474 C23.605743,33.5782076 20.6862835,34.2857045 17.5343589,34.2857045" id="Fill-22"></path>
                        </g>
                        <g id="Group-27" transform="translate(141.854770, 0.488400)">
                            <mask id="mask-6" fill="white">
                                <use xlink:href="#path-5"></use>
                            </mask>
                            <g id="Clip-26"></g>
                            <path d="M16.6622416,31.0582173 L19.8493109,31.0582173 L19.9148881,31.1255189 C21.023515,32.2628083 22.4970375,32.8890354 24.063821,32.8890354 L30.1553299,32.8890354 C31.7035594,32.8890354 33.2181167,32.2440537 34.3103494,31.1192674 C35.4224122,29.9744567 36.032535,28.4550427 36.0285298,26.8408791 L35.9717681,6.49460317 C35.9617549,3.17807082 33.3270847,0.47985348 30.0986862,0.47985348 L24.6035563,0.47985348 C22.5453369,0.47985348 20.6124797,1.60766789 19.5593185,3.42334554 L18.2455176,5.68551893 L16.8630962,3.36297924 C15.8011979,1.58471306 13.8815936,0.47985348 11.8535122,0.47985348 L6.35612447,0.47985348 C3.11761443,0.47985348 0.482944318,3.18549451 0.482944318,6.51130647 L0.482944318,26.8575824 C0.482944318,30.1832967 3.11761443,32.8890354 6.35612447,32.8890354 L12.4476333,32.8890354 C14.014515,32.8890354 15.4880375,32.2628083 16.5966645,31.1255189 L16.6622416,31.0582173 Z M30.1553299,33.3320147 L24.063821,33.3320147 C22.4068199,33.3320147 20.8472028,32.6825397 19.6618074,31.5011966 L16.8497452,31.5011966 C15.6643498,32.6825397 14.1048308,33.3320147 12.4476333,33.3320147 L6.35612447,33.3320147 C2.87209278,33.3320147 0.0377461308,30.4275946 0.0377461308,26.8575824 L0.0377461308,6.51130647 C0.0377461308,2.94119658 2.87209278,0.0367765568 6.35612447,0.0367765568 L11.8535122,0.0367765568 C14.0378793,0.0367765568 16.1040505,1.2247619 17.2459568,3.13704518 L18.2407073,4.80825397 L19.1738073,3.20180708 C20.3061912,1.24957265 22.3867933,0.0367765568 24.6035563,0.0367765568 L30.0986862,0.0367765568 C33.571821,0.0367765568 36.4061677,2.93318681 36.4169663,6.49333333 L36.4738276,26.839707 C36.4781258,28.5698168 35.8235323,30.1990232 34.6305779,31.4271551 C33.4548031,32.6377045 31.8236205,33.3320147 30.1553299,33.3320147 L30.1553299,33.3320147 Z" id="Fill-25" fill-opacity="0.4" fill="#FFFFFF" mask="url(#mask-6)"></path>
                        </g>
                    </g>
                </g>
            </g>
        </g>
    </g>
</svg>